<?xml version="1.0" encoding="utf-8"?>
<!-- Generator: Adobe Illustrator 21.1.0, SVG Export Plug-In . SVG Version: 6.00 Build 0)  -->
<svg version="1.1" id="圖層_1" xmlns="http://www.w3.org/2000/svg" xmlns:xlink="http://www.w3.org/1999/xlink" x="0px" y="0px"
	 viewBox="0 0 324 200" style="enable-background:new 0 0 324 200;" xml:space="preserve">
<style type="text/css">
	.st0{fill:none;}
	.st1{fill:none;stroke:#000000;stroke-miterlimit:10;}
	.st2{fill:#EDDB35;}
	.st3{fill:#FFAA00;}
	.st4{fill:#C4BEB3;}
	.st5{fill:#FF0000;}
	.st6{fill:#070707;}
	.st7{fill:none;stroke:#EDDB35;stroke-width:0.25;stroke-miterlimit:10;}
	.st8{fill:none;stroke:#C4BEB3;stroke-width:0.25;stroke-miterlimit:10;}
	.st9{fill:none;stroke:#FFAA00;stroke-width:0.25;stroke-miterlimit:10;}
	.st10{fill:none;stroke:#FF0000;stroke-width:0.25;stroke-miterlimit:10;}
	.st11{fill:none;stroke:#070707;stroke-width:0.25;stroke-miterlimit:10;}
	.st12{fill:#FCF8F6;}
	.st13{fill:none;stroke:#FFAA00;stroke-miterlimit:10;}
	.st14{fill:#FFDED4;}
	.st15{fill:#FFFFFF;}
	.st16{fill:#A0A09D;}
	.st17{fill:#F7F18D;}
	.st18{fill:#D8B088;}
	.st19{fill:none;stroke:#E25050;stroke-width:20;stroke-linecap:round;stroke-miterlimit:10;}
	.st20{fill:none;stroke:#EDCC29;stroke-width:20;stroke-linecap:round;stroke-miterlimit:10;}
</style>
<g>
	<g>
		<path class="st14" d="M211.6,87.5c-2.8,3.4-7.4,4.2-10.4,1.8c-3-2.4-3.1-7.1-0.4-10.5c2.8-3.4,7.4-4.2,10.4-1.8
			C214.2,79.4,214.4,84.1,211.6,87.5z"/>
		<path class="st14" d="M257.2,118.4c-2.5,3.2-6.9,3.9-9.6,1.7c-2.8-2.2-2.9-6.6-0.4-9.8c2.5-3.2,6.9-3.9,9.6-1.7
			C259.6,110.8,259.8,115.2,257.2,118.4z"/>
		<path class="st14" d="M254.6,96.6c-2.8,3.5-7.6,4.4-10.7,1.9c-3.1-2.5-3.3-7.4-0.4-10.9c2.9-3.5,7.7-4.4,10.7-1.9
			C257.3,88.2,257.5,93.1,254.6,96.6z"/>
		<path class="st14" d="M236.4,82.3c-2.5,3.1-6.8,3.9-9.5,1.7c-2.7-2.2-2.9-6.5-0.4-9.7c2.5-3.1,6.8-3.9,9.5-1.7
			C238.8,74.9,238.9,79.2,236.4,82.3z"/>
		<path class="st14" d="M218.7,95.6c0,0,8.9-4.7,15.2-0.7c3.9,3.9,4.3,7.3,2.3,13.5c1.2,4.9,5.5,16.3-3.3,20.1
			c-5,1.4-5.1,1.5-12.6-7c-7-7.7-4.1-4.6-13-6.3c-11.5-1.6-7.8-12.2-7.3-13.4C202.2,97.2,208,96.5,218.7,95.6z"/>
	</g>
	<path class="st3" d="M105.3,126.9c0,1.3-0.6,2.4-1.7,3.3c-1.1,0.9-2.4,1.3-3.7,1.3c-2.3,0-4-1.1-5.2-3.3l-2.3-4.3H72l-2.3,4.3
		c-1.1,2.1-2.7,3.2-4.8,3.2c-1.4,0-2.7-0.5-3.8-1.4c-1.2-0.9-1.8-2.1-1.8-3.4c0-1.1,0.2-1.9,0.6-2.6l16-31.3
		c1.3-2.5,3.5-3.8,6.5-3.8c3.1,0,5.3,1.3,6.6,3.9l15.9,31.3C105.1,125,105.3,125.8,105.3,126.9z M87.8,114l-5.4-11.6L76.7,114H87.8z
		"/>
	<path class="st3" d="M121,116.7h-12c-1,0-1.8-0.4-2.4-1.1c-0.6-0.6-0.8-1.4-0.8-2.3c0-0.9,0.3-1.7,0.9-2.4c0.6-0.7,1.4-1,2.4-1H121
		c1,0,1.8,0.3,2.4,1c0.6,0.6,0.8,1.4,0.8,2.3c0,0.9-0.3,1.7-0.8,2.3C122.8,116.3,122,116.7,121,116.7z"/>
	<path class="st3" d="M171.8,126.8c0,1.5-0.5,2.6-1.6,3.4c-1,0.8-2.3,1.3-3.7,1.3c-1.4,0-2.7-0.4-3.7-1.3c-1.1-0.9-1.7-2.1-1.7-3.5
		v-15.1l-6.9,13.2c-1.1,2-2.7,3-4.9,3c-2.2,0-3.8-1-4.9-3l-7-12.8v15c0,1.5-0.6,2.6-1.8,3.4c-1.1,0.7-2.4,1.1-3.9,1.1
		c-1.4,0-2.5-0.4-3.5-1.3c-1-0.8-1.5-1.8-1.5-3.2V93.5c0-1.8,0.5-3.1,1.6-4.1c0.9-0.9,2.1-1.3,3.6-1.3c1.3,0,2.6,0.3,3.8,0.8
		c1.2,0.5,2,1.3,2.4,2.3c2.6,5.7,6.3,13.4,11,23.2l11.4-23c1.1-2.2,3-3.3,5.8-3.3c1.5,0,2.8,0.4,3.7,1.3c1.1,1,1.7,2.3,1.7,4V126.8z
		"/>
	<path class="st3" d="M225.4,126.9c0,1.3-0.6,2.4-1.7,3.3c-1.1,0.9-2.4,1.3-3.7,1.3c-2.3,0-4-1.1-5.2-3.3l-2.3-4.3h-20.4l-2.3,4.3
		c-1.1,2.1-2.7,3.2-4.8,3.2c-1.4,0-2.7-0.5-3.8-1.4c-1.2-0.9-1.8-2.1-1.8-3.4c0-1.1,0.2-1.9,0.6-2.6l16-31.3
		c1.3-2.5,3.5-3.8,6.5-3.8c3.1,0,5.3,1.3,6.6,3.9l15.9,31.3C225.2,125,225.4,125.8,225.4,126.9z M207.9,114l-5.4-11.6l-5.7,11.6
		H207.9z"/>
	<g>
		<path class="st4" d="M74,60.9c0.6,2.3-0.3,4.4-2,4.9c-1.7,0.4-3.5-1-4.1-3.3c-0.6-2.2,0.3-4.4,2-4.9C71.5,57.2,73.4,58.6,74,60.9z
			"/>
		<path class="st3" d="M77,69.5c0.8,3.2-0.2,6.3-2.4,6.8c-2.1,0.6-4.6-1.6-5.4-4.8c-0.8-3.2,0.2-6.3,2.3-6.8
			C73.7,64.2,76.2,66.3,77,69.5z"/>
		<path class="st5" d="M53.7,90.6c0,0,16.8-24.5,46.1-12.2"/>
		<polygon class="st6" points="49.1,90.5 103.8,76 100.8,88.8 58.2,100.1 		"/>
	</g>
</g>
</svg>
